<?xml version="1.0" encoding="UTF-8" standalone="no"?>
<svg
   version="1.1"
   width="637.5pt"
   height="720pt"
   viewBox="0 0 637.5 720"
   id="svg17"
   sodipodi:docname="ptitlogo.svg"
   inkscape:version="1.4.2 (f4327f4, 2025-05-13)"
   xmlns:inkscape="http://www.inkscape.org/namespaces/inkscape"
   xmlns:sodipodi="http://sodipodi.sourceforge.net/DTD/sodipodi-0.dtd"
   xmlns="http://www.w3.org/2000/svg"
   xmlns:svg="http://www.w3.org/2000/svg">
  <defs
     id="defs17" />
  <sodipodi:namedview
     id="namedview17"
     pagecolor="#ffffff"
     bordercolor="#000000"
     borderopacity="0.25"
     inkscape:showpageshadow="2"
     inkscape:pageopacity="0.0"
     inkscape:pagecheckerboard="0"
     inkscape:deskcolor="#d1d1d1"
     inkscape:document-units="pt"
     inkscape:zoom="0.84895833"
     inkscape:cx="425.22699"
     inkscape:cy="480"
     inkscape:window-width="1920"
     inkscape:window-height="1017"
     inkscape:window-x="-8"
     inkscape:window-y="-8"
     inkscape:window-maximized="1"
     inkscape:current-layer="svg17" />
  <g
     enable-background="new"
     id="g17">
    <g
       id="g16">
      <path
         d="M 63.75 634.848 C 63.75 634.848 261.238 634.906 268.645 634.848 C 293.918 634.848 303.395 634.848 309.715 637.555 C 316.961 640.66 319.648 645.117 319.645 646.848 C 319.641 647.816 319.688 652.652 319.645 655.422 C 319.102 655.414 317.762 655.426 316.938 655.422 C 314.418 648.359 302.945 645.688 294.371 645.68 L 63.75 645.68 Z M 63.75 634.848 "
         fill="#de2219"
         id="path1"
         style="fill:#c31a13;fill-opacity:1" />
      <path
         d="M 573.75 634.848 C 573.75 634.848 376.262 634.906 368.855 634.848 C 343.582 634.848 334.102 634.848 327.785 637.555 C 320.539 640.66 317.852 645.117 317.855 646.848 C 317.859 647.816 317.812 652.652 317.855 655.422 C 318.398 655.414 319.738 655.426 320.562 655.422 C 323.078 648.359 334.555 645.688 343.129 645.68 L 573.75 645.68 Z M 573.75 634.848 "
         fill="#de2219"
         id="path2"
         style="fill:#c31a13;fill-opacity:1" />
      <path
         d="M 573.73 653.164 L 447.344 653.289 C 447.344 653.289 371.094 653.164 354.848 653.164 C 330.105 653.164 323.227 660.938 323.25 668.961 C 323.277 676.984 323.234 676.203 323.258 693.781 C 329.848 686.332 332.621 682.426 352.59 682.5 C 358.484 682.52 573.73 682.5 573.73 682.5 Z M 573.73 653.164 "
         fill="#de2219"
         id="path3"
         style="fill:#c31a13;fill-opacity:1" />
      <path
         d="M 63.75 653.164 L 190.137 653.289 C 190.137 653.289 266.391 653.164 282.637 653.164 C 307.375 653.164 314.254 660.938 314.23 668.961 C 314.207 676.984 314.246 676.203 314.227 693.781 C 307.633 686.332 304.859 682.426 284.895 682.5 C 279 682.52 63.75 682.5 63.75 682.5 Z M 63.75 653.164 "
         fill="#de2219"
         id="path4"
         style="fill:#c31a13;fill-opacity:1" />
      <path
         d="M 166.762 479.41 L 166.762 345.879 L 209.359 345.879 C 225.5 345.879 236.023 346.547 240.926 347.883 C 248.457 349.887 254.766 354.258 259.848 361 C 264.93 367.68 267.469 376.332 267.469 386.957 C 267.469 395.156 266.004 402.047 263.074 407.633 C 260.145 413.223 256.41 417.625 251.867 420.84 C 247.383 424 242.809 426.094 238.145 427.125 C 231.809 428.402 222.633 429.039 210.613 429.039 L 193.305 429.039 L 193.305 479.41 Z M 193.305 368.469 L 193.305 406.359 L 207.832 406.359 C 218.297 406.359 225.293 405.66 228.82 404.266 C 232.348 402.867 235.098 400.68 237.07 397.707 C 239.102 394.73 240.117 391.27 240.117 387.324 C 240.117 382.465 238.715 378.457 235.902 375.301 C 233.094 372.141 229.535 370.168 225.23 369.379 C 222.062 368.773 215.695 368.469 206.129 368.469 Z M 193.305 368.469 "
         fill="#de2219"
         id="path5"
         style="fill:#c31a13;fill-opacity:1" />
      <path
         d="M 306.668 479.41 L 306.668 368.469 L 271.512 368.469 L 271.512 345.879 L 365.664 345.879 L 365.664 368.469 L 330.59 368.469 L 330.59 479.41 Z M 306.668 479.41 "
         fill="#de2219"
         id="path6"
         style="fill:#c31a13;fill-opacity:1" />
      <path
         d="M 505.246 479.41 L 505.246 368.469 L 470.09 368.469 L 470.09 345.879 L 564.242 345.879 L 564.242 368.469 L 529.168 368.469 L 529.168 479.41 Z M 505.246 479.41 "
         fill="#de2219"
         id="path7"
         style="fill:#c31a13;fill-opacity:1" />
      <path
         d="M 403.582 479.41 L 403.582 400.43 L 430.41 426.156 L 430.41 479.406 Z M 403.582 479.41 "
         fill="#de2219"
         id="path8"
         style="fill:#c31a13;fill-opacity:1" />
      <path
         d="M 372.109 346.273 L 403.699 346.273 L 444.316 274.062 L 435.293 346.273 L 464.625 346.273 L 428.523 371.094 L 432.473 413.969 L 405.504 389.148 L 356.199 418.48 L 385.648 368.84 Z M 372.109 346.273 "
         fill="#e5e500"
         id="path9" />
      <path
         d="M 230.168 164.258 C 367.797 -6.008 563.57 53.375 467.598 336.266 C 632.141 -8.598 363.09 -65.523 230.168 164.258 Z M 230.168 164.258 "
         fill="#de2219"
         id="path10"
         style="fill:#c31a13;fill-opacity:1" />
      <path
         d="M 290.281 74.969 C 86.398 239.035 -10.152 629.285 192.133 574.211 C 74.711 525.52 125.207 226.371 290.281 74.969 Z M 290.281 74.969 "
         fill="#de2219"
         id="path11"
         style="fill:#c31a13;fill-opacity:1" />
      <path
         d="M 396.812 407.199 C 396.812 454.586 396.812 461.355 396.555 477.238 C 369.246 520.121 206.023 686.039 103.215 573.781 C 199.074 641.523 375.742 465.523 396.812 407.199 Z M 396.812 407.199 "
         fill="#de2219"
         id="path12"
         style="fill:#c31a13;fill-opacity:1" />
      <path
         d="M 356.199 418.48 L 410.02 367.031 L 432.473 413.969 L 405.504 389.148 Z M 356.199 418.48 "
         fill="#b2b200"
         id="path13" />
      <path
         d="M 372.109 346.273 L 405.957 362.066 L 385.648 368.84 Z M 372.109 346.273 "
         fill="#b2b200"
         id="path14" />
      <path
         d="M 444.316 274.062 L 414.984 357.555 L 435.293 346.273 Z M 444.316 274.062 "
         fill="#b2b200"
         id="path15" />
      <path
         d="M 414.984 364.324 L 428.523 371.094 L 464.625 346.273 Z M 414.984 364.324 "
         fill="#b2b200"
         id="path16" />
    </g>
  </g>
</svg>
